<mxfile host="app.diagrams.net" agent="Mozilla/5.0 (Windows NT 10.0; Win64; x64) AppleWebKit/537.36 (KHTML, like Gecko) Chrome/132.0.0.0 Safari/537.36 OPR/117.0.0.0" version="26.1.1">
  <diagram name="Page-1" id="QeimFGgVQKBryHtCvd5O">
    <mxGraphModel dx="1160" dy="634" grid="1" gridSize="10" guides="1" tooltips="1" connect="1" arrows="1" fold="1" page="1" pageScale="1" pageWidth="1600" pageHeight="900" math="0" shadow="0">
      <root>
        <mxCell id="0" />
        <mxCell id="1" parent="0" />
        <mxCell id="vemCp2V8R8nE8lWMeDdh-11" value="Twitter" style="swimlane;fontStyle=1;align=center;verticalAlign=top;childLayout=stackLayout;horizontal=1;startSize=26;horizontalStack=0;resizeParent=1;resizeParentMax=0;resizeLast=0;collapsible=1;marginBottom=0;whiteSpace=wrap;html=1;strokeColor=light-dark(#FF0000,#FF3333);" vertex="1" parent="1">
          <mxGeometry x="490" y="130" width="220" height="80" as="geometry" />
        </mxCell>
        <mxCell id="vemCp2V8R8nE8lWMeDdh-12" value="" style="text;strokeColor=light-dark(#FF0000,#FF3333);fillColor=default;align=left;verticalAlign=top;spacingLeft=4;spacingRight=4;overflow=hidden;rotatable=0;points=[[0,0.5],[1,0.5]];portConstraint=eastwest;whiteSpace=wrap;html=1;" vertex="1" parent="vemCp2V8R8nE8lWMeDdh-11">
          <mxGeometry y="26" width="220" height="4" as="geometry" />
        </mxCell>
        <mxCell id="vemCp2V8R8nE8lWMeDdh-13" value="&amp;lt;&amp;lt;create&amp;gt;&amp;gt; Twitter()&lt;div&gt;+ agregarUsuario(screenName: String)&lt;/div&gt;&lt;div&gt;+ eliminarUsuario(usuario: Usuario)&lt;/div&gt;" style="text;strokeColor=light-dark(#FF0000,#FF3333);fillColor=default;align=left;verticalAlign=top;spacingLeft=4;spacingRight=4;overflow=hidden;rotatable=0;points=[[0,0.5],[1,0.5]];portConstraint=eastwest;whiteSpace=wrap;html=1;" vertex="1" parent="vemCp2V8R8nE8lWMeDdh-11">
          <mxGeometry y="30" width="220" height="50" as="geometry" />
        </mxCell>
        <mxCell id="vemCp2V8R8nE8lWMeDdh-20" style="edgeStyle=orthogonalEdgeStyle;rounded=0;orthogonalLoop=1;jettySize=auto;html=1;exitX=0.5;exitY=0;exitDx=0;exitDy=0;entryX=0.5;entryY=1;entryDx=0;entryDy=0;strokeColor=light-dark(#FF0000,#FF3333);" edge="1" parent="1" source="vemCp2V8R8nE8lWMeDdh-14" target="vemCp2V8R8nE8lWMeDdh-17">
          <mxGeometry relative="1" as="geometry" />
        </mxCell>
        <mxCell id="vemCp2V8R8nE8lWMeDdh-21" value="0..*&lt;div&gt;Tweets&lt;/div&gt;" style="edgeLabel;html=1;align=center;verticalAlign=middle;resizable=0;points=[];fontSize=12;" vertex="1" connectable="0" parent="vemCp2V8R8nE8lWMeDdh-20">
          <mxGeometry x="0.01" relative="1" as="geometry">
            <mxPoint x="30" as="offset" />
          </mxGeometry>
        </mxCell>
        <mxCell id="vemCp2V8R8nE8lWMeDdh-14" value="Tweet" style="swimlane;fontStyle=1;align=center;verticalAlign=top;childLayout=stackLayout;horizontal=1;startSize=26;horizontalStack=0;resizeParent=1;resizeParentMax=0;resizeLast=0;collapsible=1;marginBottom=0;whiteSpace=wrap;html=1;strokeColor=light-dark(#FF0000,#FF3333);" vertex="1" parent="1">
          <mxGeometry x="505" y="522" width="190" height="78" as="geometry" />
        </mxCell>
        <mxCell id="vemCp2V8R8nE8lWMeDdh-15" value="- texto: String" style="text;strokeColor=light-dark(#FF0000,#FF3333);fillColor=default;align=left;verticalAlign=top;spacingLeft=4;spacingRight=4;overflow=hidden;rotatable=0;points=[[0,0.5],[1,0.5]];portConstraint=eastwest;whiteSpace=wrap;html=1;" vertex="1" parent="vemCp2V8R8nE8lWMeDdh-14">
          <mxGeometry y="26" width="190" height="26" as="geometry" />
        </mxCell>
        <mxCell id="vemCp2V8R8nE8lWMeDdh-16" value="&amp;lt;&amp;lt;create&amp;gt;&amp;gt; Tweet (texto: String)" style="text;strokeColor=light-dark(#FF0000,#FF3333);fillColor=default;align=left;verticalAlign=top;spacingLeft=4;spacingRight=4;overflow=hidden;rotatable=0;points=[[0,0.5],[1,0.5]];portConstraint=eastwest;whiteSpace=wrap;html=1;" vertex="1" parent="vemCp2V8R8nE8lWMeDdh-14">
          <mxGeometry y="52" width="190" height="26" as="geometry" />
        </mxCell>
        <mxCell id="vemCp2V8R8nE8lWMeDdh-22" style="edgeStyle=orthogonalEdgeStyle;rounded=0;orthogonalLoop=1;jettySize=auto;html=1;exitX=0.5;exitY=0;exitDx=0;exitDy=0;entryX=0.5;entryY=1;entryDx=0;entryDy=0;strokeColor=light-dark(#FF0000,#FF3333);" edge="1" parent="1" source="vemCp2V8R8nE8lWMeDdh-17" target="vemCp2V8R8nE8lWMeDdh-11">
          <mxGeometry relative="1" as="geometry" />
        </mxCell>
        <mxCell id="vemCp2V8R8nE8lWMeDdh-23" value="0..*&lt;div&gt;Usuarios&lt;/div&gt;" style="edgeLabel;html=1;align=center;verticalAlign=middle;resizable=0;points=[];fontSize=12;" vertex="1" connectable="0" parent="vemCp2V8R8nE8lWMeDdh-22">
          <mxGeometry x="0.0387" y="1" relative="1" as="geometry">
            <mxPoint x="31" as="offset" />
          </mxGeometry>
        </mxCell>
        <mxCell id="vemCp2V8R8nE8lWMeDdh-17" value="Usuario" style="swimlane;fontStyle=1;align=center;verticalAlign=top;childLayout=stackLayout;horizontal=1;startSize=26;horizontalStack=0;resizeParent=1;resizeParentMax=0;resizeLast=0;collapsible=1;marginBottom=0;whiteSpace=wrap;html=1;strokeColor=light-dark(#FF0000,#FF3333);" vertex="1" parent="1">
          <mxGeometry x="480" y="310" width="240" height="140" as="geometry" />
        </mxCell>
        <mxCell id="vemCp2V8R8nE8lWMeDdh-18" value="- screenName: String" style="text;strokeColor=light-dark(#FF0000,#FF3333);fillColor=default;align=left;verticalAlign=top;spacingLeft=4;spacingRight=4;overflow=hidden;rotatable=0;points=[[0,0.5],[1,0.5]];portConstraint=eastwest;whiteSpace=wrap;html=1;" vertex="1" parent="vemCp2V8R8nE8lWMeDdh-17">
          <mxGeometry y="26" width="240" height="26" as="geometry" />
        </mxCell>
        <mxCell id="vemCp2V8R8nE8lWMeDdh-19" value="&amp;lt;&amp;lt;create&amp;gt;&amp;gt; Usuario(screenName: String)&lt;div&gt;+ realizarTweet(texto: String)&lt;/div&gt;&lt;div&gt;+ retweet(origen: Tweet, texto: String)&lt;/div&gt;&lt;div&gt;+ eliminarTweets()&lt;/div&gt;&lt;div&gt;- verificarLongitud(texto: String): Boolean&lt;/div&gt;" style="text;strokeColor=light-dark(#FF0000,#FF3333);fillColor=default;align=left;verticalAlign=top;spacingLeft=4;spacingRight=4;overflow=hidden;rotatable=0;points=[[0,0.5],[1,0.5]];portConstraint=eastwest;whiteSpace=wrap;html=1;" vertex="1" parent="vemCp2V8R8nE8lWMeDdh-17">
          <mxGeometry y="52" width="240" height="88" as="geometry" />
        </mxCell>
        <mxCell id="vemCp2V8R8nE8lWMeDdh-34" style="edgeStyle=orthogonalEdgeStyle;rounded=0;orthogonalLoop=1;jettySize=auto;html=1;exitX=0.5;exitY=1;exitDx=0;exitDy=0;entryX=0;entryY=0.5;entryDx=0;entryDy=0;strokeColor=light-dark(#FF0000,#FF3333);" edge="1" parent="1" source="vemCp2V8R8nE8lWMeDdh-29" target="vemCp2V8R8nE8lWMeDdh-16">
          <mxGeometry relative="1" as="geometry">
            <mxPoint x="740" y="680" as="targetPoint" />
            <Array as="points">
              <mxPoint x="975" y="650" />
              <mxPoint x="485" y="650" />
              <mxPoint x="485" y="587" />
            </Array>
          </mxGeometry>
        </mxCell>
        <mxCell id="vemCp2V8R8nE8lWMeDdh-35" value="- origen" style="edgeLabel;html=1;align=center;verticalAlign=middle;resizable=0;points=[];fontSize=12;" vertex="1" connectable="0" parent="vemCp2V8R8nE8lWMeDdh-34">
          <mxGeometry x="-0.1645" y="-1" relative="1" as="geometry">
            <mxPoint x="4" y="-9" as="offset" />
          </mxGeometry>
        </mxCell>
        <mxCell id="vemCp2V8R8nE8lWMeDdh-29" value="Retweet" style="swimlane;fontStyle=1;align=center;verticalAlign=top;childLayout=stackLayout;horizontal=1;startSize=26;horizontalStack=0;resizeParent=1;resizeParentMax=0;resizeLast=0;collapsible=1;marginBottom=0;whiteSpace=wrap;html=1;strokeColor=light-dark(#FF0000,#FF3333);" vertex="1" parent="1">
          <mxGeometry x="840" y="533" width="270" height="56" as="geometry" />
        </mxCell>
        <mxCell id="vemCp2V8R8nE8lWMeDdh-30" value="" style="text;strokeColor=light-dark(#FF0000,#FF3333);fillColor=default;align=left;verticalAlign=top;spacingLeft=4;spacingRight=4;overflow=hidden;rotatable=0;points=[[0,0.5],[1,0.5]];portConstraint=eastwest;whiteSpace=wrap;html=1;" vertex="1" parent="vemCp2V8R8nE8lWMeDdh-29">
          <mxGeometry y="26" width="270" height="4" as="geometry" />
        </mxCell>
        <mxCell id="vemCp2V8R8nE8lWMeDdh-31" value="&amp;lt;&amp;lt;create&amp;gt;&amp;gt; Retweet(texto: String, origen:Tweet)" style="text;strokeColor=light-dark(#FF0000,#FF3333);fillColor=default;align=left;verticalAlign=top;spacingLeft=4;spacingRight=4;overflow=hidden;rotatable=0;points=[[0,0.5],[1,0.5]];portConstraint=eastwest;whiteSpace=wrap;html=1;" vertex="1" parent="vemCp2V8R8nE8lWMeDdh-29">
          <mxGeometry y="30" width="270" height="26" as="geometry" />
        </mxCell>
        <mxCell id="vemCp2V8R8nE8lWMeDdh-32" style="edgeStyle=orthogonalEdgeStyle;rounded=0;orthogonalLoop=1;jettySize=auto;html=1;exitX=0;exitY=0.5;exitDx=0;exitDy=0;entryX=1;entryY=0.5;entryDx=0;entryDy=0;strokeColor=light-dark(#FF0000,#FF3333);endArrow=blockThin;endFill=0;startSize=6;endSize=12;" edge="1" parent="1" source="vemCp2V8R8nE8lWMeDdh-30" target="vemCp2V8R8nE8lWMeDdh-15">
          <mxGeometry relative="1" as="geometry" />
        </mxCell>
      </root>
    </mxGraphModel>
  </diagram>
</mxfile>
